<svg width="33" height="32" viewBox="0 0 33 32" fill="none" xmlns="http://www.w3.org/2000/svg">
<circle cx="16.7977" cy="16" r="14.5882" fill="#FAFAFA"/>
<path d="M16.7976 2.82349C24.0631 2.82349 29.9741 8.7345 29.9741 16C29.9741 23.2655 24.0631 29.1765 16.7976 29.1765C9.5321 29.1765 3.62114 23.2655 3.62114 16C3.62114 8.7345 9.5321 2.82349 16.7976 2.82349ZM16.7976 0C7.96109 0 0.797607 7.16345 0.797607 16C0.797607 24.8365 7.96109 32 16.7976 32C25.6341 32 32.7976 24.8365 32.7976 16C32.7976 7.16345 25.6341 0 16.7976 0Z" fill="#0F0F0F"/>
<path d="M10.3851 20.7845H8.52554V13.7765C7.84602 14.4118 7.04526 14.8816 6.12329 15.186V13.4985C6.60856 13.3396 7.1358 13.0386 7.70484 12.5951C8.27407 12.1518 8.66446 11.6346 8.87623 11.0433H10.3851V20.7845Z" fill="#0F0F0F"/>
<path d="M14.7592 15.5499C14.2783 15.3469 13.9287 15.068 13.7104 14.7128C13.4918 14.3578 13.3826 13.9683 13.3826 13.5448C13.3826 12.8212 13.6353 12.2236 14.1405 11.7515C14.6455 11.2794 15.3636 11.0433 16.2945 11.0433C17.2164 11.0433 17.9323 11.2794 18.4418 11.7515C18.9514 12.2236 19.2063 12.8212 19.2063 13.5448C19.2063 13.9949 19.0894 14.3952 18.8556 14.7459C18.6216 15.0966 18.2929 15.3646 17.8694 15.5499C18.4078 15.7661 18.8168 16.0816 19.0971 16.4963C19.3772 16.911 19.5172 17.3897 19.5172 17.9324C19.5172 18.828 19.2317 19.5559 18.6602 20.1161C18.0889 20.6765 17.329 20.9565 16.3805 20.9565C15.4982 20.9565 14.7635 20.725 14.1768 20.2618C13.4841 19.7146 13.1379 18.9646 13.1379 18.0118C13.1379 17.4868 13.268 17.0047 13.5283 16.5658C13.7887 16.1268 14.1988 15.7882 14.7592 15.5499ZM14.971 17.833C14.971 18.3448 15.1022 18.744 15.3648 19.0309C15.6272 19.3176 15.9547 19.461 16.3474 19.461C16.7312 19.461 17.0489 19.323 17.3004 19.0475C17.5519 18.7717 17.6776 18.3734 17.6776 17.8529C17.6776 17.3985 17.5496 17.0333 17.2938 16.7578C17.0378 16.482 16.7137 16.344 16.321 16.344C15.8666 16.344 15.528 16.5006 15.3051 16.8139C15.0824 17.1271 14.971 17.4669 14.971 17.833ZM15.143 13.6771C15.143 14.0477 15.2479 14.3367 15.4574 14.5441C15.6669 14.7514 15.9458 14.8551 16.2945 14.8551C16.6474 14.8551 16.9297 14.7502 17.1415 14.5408C17.3533 14.3312 17.4592 14.0412 17.4592 13.6705C17.4592 13.3221 17.3544 13.0429 17.1449 12.8334C16.9352 12.6239 16.6585 12.5191 16.3144 12.5191C15.9569 12.5191 15.6723 12.6249 15.4606 12.8366C15.2488 13.0484 15.143 13.3287 15.143 13.6771Z" fill="#0F0F0F"/>
<path d="M23.2299 19.3882V16.8669H20.6887V15.1263H23.2299V12.6051H24.924V15.1263H27.4718V16.8669H24.924V19.3882H23.2299Z" fill="#0F0F0F"/>
</svg>
