<svg width="49" height="32" viewBox="0 0 49 32" fill="none" xmlns="http://www.w3.org/2000/svg">
<path d="M7.09768 17.6324L10.2099 9.08596L1.3732 12.1014C0.373434 12.44 1.01845 11.6338 1.01845 11.6338L2.3891 9.90836C3.03411 9.08596 4.09838 9.08596 4.09838 9.08596C4.09838 9.08596 3.03411 9.08596 2.3891 8.26357L1.01845 6.53817C1.01845 6.53817 0.373434 5.71578 1.3732 6.07053L10.2099 9.08596V15.0039C10.2099 15.0039 10.2099 16.036 9.37135 16.6648L7.59757 17.9871C7.59757 17.971 6.74293 18.5999 7.09768 17.6324ZM10.2099 3.16798V9.08596L7.09768 0.539543C6.74293 -0.427971 7.58144 0.200905 7.58144 0.200905L9.35522 1.5232C10.2099 2.13596 10.2099 3.16798 10.2099 3.16798Z" fill="#FAFAFA"/>
<path d="M6.34521 31.9248H7.11246L7.48866 30.9018H8.93268L9.32388 31.9248H10.1211L8.49649 27.848H7.90985L6.34521 31.9248ZM7.69926 30.315L7.99999 29.5178C8.10529 29.2019 8.1656 29.0213 8.21075 28.886H8.22575C8.25574 29.0213 8.31605 29.2019 8.43634 29.5178L8.72208 30.3302H7.69926V30.315ZM12.1521 32C12.9042 32 13.4307 31.7442 13.6714 31.2177C13.7767 31.0071 13.8219 30.7364 13.8219 30.4203V27.878H13.0848V30.3602C13.0848 30.5859 13.0546 30.7664 12.9795 30.9168C12.844 31.2027 12.5583 31.3682 12.1521 31.3682C11.7459 31.3682 11.46 31.2027 11.3247 30.9168C11.2494 30.7664 11.2194 30.5859 11.2194 30.3753V27.878H10.4822V30.4203C10.4822 30.7212 10.5273 30.9921 10.6326 31.2027C10.8734 31.7292 11.3998 32 12.1521 32ZM15.567 31.9248H16.304V28.4948H17.3872L17.5828 27.863H14.3785V28.4948H15.567V31.9248ZM18.1093 31.9248H18.8464V30.1647H20.787V31.9248H21.5391V27.863H20.787V29.5479H18.8464V27.878H18.1093V31.9248ZM24.3823 32C25.5708 32 26.4283 31.1726 26.4283 29.924C26.4283 28.7054 25.5858 27.848 24.3823 27.848C23.1789 27.848 22.3365 28.6904 22.3365 29.924C22.3365 31.1576 23.1789 32 24.3823 32ZM24.3823 31.3682C23.6302 31.3682 23.1337 30.8265 23.1337 29.909C23.1337 28.9913 23.6452 28.4496 24.3823 28.4496C25.1496 28.4496 25.6309 29.0063 25.6309 29.909C25.6309 30.8417 25.1194 31.3682 24.3823 31.3682ZM27.2105 31.9248H27.9476V30.3452H28.2937C28.399 30.3753 28.5343 30.5408 28.7299 30.9018L29.3165 31.9248H30.1591L29.4821 30.7364C29.2715 30.3602 29.1059 30.1496 28.9706 30.0744V30.0594C29.437 29.909 29.7679 29.5479 29.7679 29.0063C29.7679 28.6001 29.6024 28.2241 29.1662 28.0135C28.9555 27.9082 28.6847 27.848 28.2937 27.848H27.1804V31.9248H27.2105ZM27.9626 29.7434V28.4798H28.3087C28.5343 28.4798 28.6697 28.525 28.76 28.6001C28.9405 28.7054 29.0308 28.901 29.0308 29.1116C29.0308 29.3673 28.9255 29.5479 28.7449 29.6533C28.6246 29.7134 28.4891 29.7585 28.2937 29.7585H27.9626V29.7434ZM30.7758 31.9248H31.5129V27.863H30.7758V31.9248ZM33.258 31.9248H33.9951V28.4948H35.0782L35.2888 27.863H32.0846V28.4948H33.273V31.9248H33.258ZM36.9586 31.9248H37.7109V30.3302L39.0947 27.878H38.2975L37.3498 29.6682H37.3346L36.387 27.878H35.5746L36.9586 30.3302V31.9248Z" fill="#FAFAFA"/>
<path d="M6.34518 26.6596H7.08243V24.3579V23.8464H7.09742C7.17257 23.9969 7.29302 24.1473 7.36817 24.2678L8.25571 25.5463H8.58676L9.38399 24.2977C9.4593 24.1924 9.60975 23.9517 9.65474 23.8464H9.6699C9.65474 24.012 9.65474 24.2226 9.65474 24.3881V26.6746H10.407V22.613H9.73004L8.7522 24.1173C8.61675 24.3279 8.51145 24.5083 8.42131 24.6588H8.40615C8.31601 24.4933 8.21072 24.3429 8.06026 24.1323L6.99213 22.5978H6.31519V26.6596H6.34518ZM10.9485 26.6596H11.7157L12.0919 25.6366H13.5359L13.9271 26.6596H14.7244L13.0997 22.5828H12.5131L10.9485 26.6596ZM12.3175 25.0349L12.6184 24.2376C12.7237 23.9217 12.7839 23.7411 12.829 23.6058H12.844C12.8742 23.7411 12.9343 23.9217 13.0396 24.2376L13.3253 25.05H12.3175V25.0349ZM15.281 26.6596H17.4623V26.0278H16.0181V22.5978H15.281V26.6596ZM18.4101 26.6596H19.1472V23.2298H20.2304L20.4409 22.5978H17.2367V23.2298H18.4251V26.6596H18.4101ZM20.0649 26.6596H20.832L21.2082 25.6366H22.6524L23.0434 26.6596H23.8408L22.216 22.5828H21.6294L20.0649 26.6596ZM21.4338 25.0349L21.7347 24.2376C21.84 23.9217 21.9001 23.7411 21.9453 23.6058H21.9603C21.9904 23.7411 22.0506 23.9217 22.1709 24.2376L22.4568 25.05H21.4338V25.0349ZM29.151 24.689H28.3989V25.9827C28.2335 26.0578 27.9927 26.103 27.722 26.103C26.8495 26.103 26.338 25.5313 26.338 24.6588C26.338 23.8014 26.8495 23.1996 27.8273 23.1996C28.2635 23.1996 28.6245 23.3049 28.9404 23.4704V22.7784C28.6395 22.6731 28.2333 22.5828 27.767 22.5828C26.4131 22.5828 25.5406 23.4854 25.5406 24.7189C25.5406 25.8774 26.323 26.7348 27.6617 26.7348C28.2335 26.7348 28.775 26.5995 29.136 26.4039V24.689H29.151ZM29.6325 26.6596H30.3996L30.7758 25.6366H32.22L32.611 26.6596H33.4084L31.7986 22.5828H31.197L29.6325 26.6596ZM31.0014 25.0349L31.3023 24.2376C31.4076 23.9217 31.4678 23.7411 31.5129 23.6058H31.5279C31.5581 23.7411 31.6182 23.9217 31.7385 24.2376L32.0244 25.05H31.0014V25.0349ZM33.9649 26.6596H34.7022V24.3579V23.8464H34.7172C34.7923 23.9969 34.9128 24.1473 34.9879 24.2678L35.8754 25.5463H36.2215L37.0187 24.2977C37.094 24.1924 37.2445 23.9517 37.2896 23.8464H37.3046C37.2896 24.012 37.2896 24.2226 37.2896 24.3881V26.6746H38.0417V22.613H37.3648L36.3869 24.1173C36.2516 24.3279 36.1462 24.5083 36.056 24.6588H36.0409C35.9507 24.4933 35.8454 24.3429 35.71 24.1323L34.6419 22.5978H33.9649V26.6596ZM39.0497 26.6596H39.7868V22.5978H39.0497V26.6596ZM44.4051 26.6596V22.5978H43.653V24.7641C43.653 24.9899 43.653 25.2304 43.668 25.441H43.653C43.5325 25.2454 43.3821 25.05 43.2016 24.8092L41.5017 22.5828H40.7646V26.6445H41.5017V24.3429C41.5017 24.1022 41.5017 23.8766 41.4867 23.7111H41.5017C41.6372 23.8915 41.7725 24.1022 41.9531 24.3279L43.7131 26.6445H44.4051V26.6596ZM48.7978 24.689H48.0455V25.9827C47.8801 26.0578 47.6395 26.103 47.3686 26.103C46.4962 26.103 45.9847 25.5313 45.9847 24.6588C45.9847 23.8014 46.4962 23.1996 47.4739 23.1996C47.9102 23.1996 48.2713 23.3049 48.5872 23.4704V22.7784C48.2863 22.6731 47.8801 22.5828 47.4137 22.5828C46.0599 22.5828 45.1873 23.4854 45.1873 24.7189C45.1873 25.8774 45.9696 26.7348 47.3084 26.7348C47.8801 26.7348 48.4217 26.5995 48.7828 26.4039V24.689H48.7978Z" fill="#FAFAFA"/>
<path d="M12.3062 14.0203H15.4345V7.29605C15.9988 6.8768 16.7245 6.65106 17.3211 6.65106C18.4821 6.65106 18.6111 7.47345 18.6111 8.44095V14.0203H21.7395V7.50569V7.29605C22.3038 6.8768 23.0134 6.65106 23.61 6.65106C24.771 6.65106 24.9161 7.44119 24.9161 8.39258V14.0203H28.0606V7.58632C28.0606 4.84503 26.3835 3.95813 24.5775 3.95813C23.5616 3.95813 22.32 4.39351 21.1267 5.34491C20.6107 4.47414 19.6915 3.95813 18.4499 3.95813C17.2727 3.95813 16.144 4.52252 15.241 5.19977L14.9507 4.20001H12.3223V14.0203H12.3062ZM33.6561 18.9385C37.3971 18.9385 39.1548 17.3421 39.1548 15.5845C39.1548 11.9079 32.7047 13.5043 32.7047 11.8434C32.7047 11.7466 32.7047 11.6338 32.7853 11.408C33.0755 11.4886 33.4948 11.537 33.8979 11.537C36.4135 11.537 38.1711 10.1019 38.1711 7.84431C38.1711 7.03806 37.9292 6.26404 37.4616 5.66742C37.6229 5.60291 37.9131 5.58679 38.0421 5.58679C38.284 5.58679 38.6065 5.63516 38.8645 5.68353L39.445 3.52274C39.2838 3.50662 38.9451 3.47437 38.7355 3.47437C37.3165 3.47437 36.6876 3.82913 36.1232 4.34512C36.0426 4.42575 35.9781 4.47414 35.8813 4.40964C35.4621 4.16776 34.7364 3.95813 33.8334 3.95813C30.8019 3.95813 29.5763 5.92542 29.5763 7.65082C29.5763 8.94086 30.1569 10.1341 31.3018 10.7469C30.5116 11.1823 29.9956 11.8595 29.9956 12.5529C29.9956 13.0528 30.2214 13.5204 30.6406 13.7623C29.7537 14.0687 28.8991 14.875 28.8991 16.0199C28.8991 17.6485 30.56 18.9385 33.6561 18.9385ZM34.1076 16.8261C32.5434 16.8261 31.6565 16.2617 31.6565 15.4555C31.6565 15.0201 31.8823 14.7137 32.0758 14.5363C33.0755 15.0523 36.2038 14.7621 36.2038 15.9231C36.2038 16.5359 35.2041 16.8261 34.1076 16.8261ZM33.8818 9.24722C32.9465 9.24722 32.495 8.50546 32.495 7.74757C32.495 6.71555 33.0917 6.23178 33.8495 6.23178C34.8009 6.23178 35.2847 7.02194 35.2847 7.7637C35.2686 8.74734 34.6719 9.24722 33.8818 9.24722ZM46.2177 14.0203H48.7977C48.6365 13.4882 48.6365 12.698 48.6365 12.0853V7.68307C48.6365 5.29652 47.3948 3.94202 44.3633 3.94202C42.7991 3.94202 41.4768 4.31288 40.3158 4.8934L41.2833 6.86069C41.9928 6.48981 42.9442 6.26404 43.7666 6.26404C44.8309 6.26404 45.492 6.63492 45.492 7.55408V7.65082L43.9279 7.71533C42.9281 7.7637 42.0412 7.94107 41.3317 8.31197C40.3158 8.84409 39.6869 9.66647 39.6869 10.9887C39.6869 12.8754 41.1059 14.1977 43.0248 14.1977C44.2504 14.1977 45.105 13.7462 45.7661 13.1657L46.2177 14.0203ZM45.492 9.65036V11.4725C45.2663 11.6176 44.7503 11.8273 44.0569 11.8273C43.3151 11.8273 42.8313 11.4886 42.8313 10.8114C42.8313 10.3921 42.9765 10.1502 43.2667 9.95674C43.5409 9.79549 43.9279 9.71486 44.4277 9.68262L45.492 9.65036Z" fill="#FAFAFA"/>
</svg>
