<svg width="31" height="32" viewBox="0 0 31 32" fill="none" xmlns="http://www.w3.org/2000/svg">
<path d="M0.797852 6C0.797852 2.68629 3.48414 0 6.79785 0H25.0001C28.3138 0 31.0001 2.68629 31.0001 6V26C31.0001 29.3137 28.3138 32 25.0001 32H6.79785C3.48414 32 0.797852 29.3137 0.797852 26V6Z" fill="#FAFAFA"/>
<path d="M7.74451 27.2958C7.69326 28.454 6.91933 29.2073 5.88399 29.2073C5.3409 29.2073 4.87439 28.9973 4.50549 28.5822C4.1979 28.2389 4.03394 27.793 4.03394 27.2907C4.03394 26.7832 4.22864 26.3169 4.60274 25.948C4.95636 25.594 5.39197 25.4198 5.92499 25.4198C6.66817 25.4198 7.24221 25.784 7.52411 26.4141H6.87331C6.63241 26.1069 6.29409 25.948 5.88399 25.948C5.54065 25.948 5.22298 26.0808 4.98208 26.327C4.72589 26.5883 4.58242 26.9474 4.58242 27.2958C4.58242 27.6801 4.71547 28.0285 4.95131 28.2746C5.20247 28.5358 5.54567 28.6847 5.88399 28.6847C6.4325 28.6847 6.86287 28.3924 7.13973 27.8083H5.4894V27.2958H7.74451Z" fill="#0F0F0F"/>
<path d="M8.31167 29.1356H7.75293L9.17782 25.4917H9.69037L11.1151 29.1356H10.536L10.1362 28.0749H8.72174L8.31167 29.1356ZM9.43416 26.1784L8.91121 27.562H9.94653L9.43416 26.1784Z" fill="#0F0F0F"/>
<path d="M11.3137 29.1356V25.4917H12.0979L13.1537 28.3106L14.2094 25.4917H14.9835V29.1356H14.4862L14.5222 25.9735L13.3383 29.1356H12.9641L11.7854 25.9735L11.8212 29.1356H11.3137Z" fill="#0F0F0F"/>
<path d="M17.3036 29.2073C16.7651 29.2073 16.309 29.0076 15.9504 28.6283C15.607 28.2646 15.4326 27.8133 15.4326 27.2754C15.4326 26.7732 15.6223 26.3117 15.9861 25.9582C16.345 25.6042 16.7962 25.4198 17.3138 25.4198C18.1645 25.4198 18.892 25.9787 19.1279 26.8754H18.1645C17.9698 26.5166 17.6775 26.327 17.3188 26.327C16.7754 26.327 16.3502 26.7471 16.3502 27.2805C16.3502 27.8595 16.8013 28.3054 17.3036 28.3054C17.6467 28.3054 17.9493 28.1209 18.144 27.7826H19.1126C18.8716 28.6692 18.1798 29.2073 17.3036 29.2073Z" fill="#0F0F0F"/>
<path d="M20.0132 29.1356H19.0393L20.4383 25.4917H21.1662L22.5652 29.1356H21.5813L21.4019 28.6077H20.1976L20.0132 29.1356ZM20.8022 26.6858L20.4383 27.8541H21.1612L20.8022 26.6858Z" fill="#0F0F0F"/>
<path d="M22.6357 29.1356V25.4917H23.8451C24.2295 25.4917 24.5218 25.5172 24.7679 25.6914C25.0908 25.9169 25.2599 26.2602 25.2599 26.7113C25.2599 27.3008 24.9523 27.7416 24.4348 27.8849L25.3265 29.1356H24.2244L23.5274 27.962V29.1356H22.6357ZM23.7018 27.1726C24.1426 27.1726 24.3576 27.0599 24.3576 26.7318C24.3576 26.4294 24.1682 26.3066 23.7735 26.3066H23.5274V27.1726H23.7018Z" fill="#0F0F0F"/>
<path d="M25.7305 29.1356V25.4917H27.7087V26.2964H26.6221V26.8857H27.7087V27.6954H26.6221V28.3311H27.7087V29.1356H25.7305Z" fill="#0F0F0F"/>
<path d="M27.0628 15.4832C26.965 15.4279 26.8572 15.3907 26.7416 15.3747C26.7142 15.37 26.6873 15.3691 26.6598 15.3664C26.6451 15.3657 26.631 15.3619 26.6161 15.3619H26.5747C26.5381 15.361 26.5014 15.3592 26.4651 15.3619H19.3395C18.8352 15.3619 18.4264 15.7707 18.4264 16.2746C18.4264 16.7789 18.8352 17.1877 19.3395 17.1877H22.1079C22.1992 17.1884 22.2731 17.2627 22.2731 17.3542C22.2731 17.407 22.2452 17.4505 22.2066 17.4809C20.6887 18.2917 18.7364 18.783 16.6003 18.783C16.0804 18.783 15.5721 18.7528 15.0774 18.6973V20.7699C15.5083 20.8015 15.9459 20.8195 16.3901 20.8195C19.3631 20.8195 22.0676 20.0927 24.0948 18.9051L24.0953 18.908C24.1205 18.8948 24.1487 18.8873 24.1789 18.8873C24.2781 18.8873 24.3585 18.9677 24.3585 19.0669C24.3585 19.0849 24.3551 19.1023 24.3497 19.1192L23.9274 20.2662C23.705 20.8695 24.0137 21.5386 24.6172 21.7608C24.75 21.8099 24.8859 21.8329 25.0197 21.8329C25.4934 21.8329 25.9385 21.5417 26.112 21.071L27.6401 16.9234C27.8476 16.36 27.5887 15.7439 27.0628 15.4832Z" fill="#231F20"/>
<path d="M16.6003 7.65135C18.7531 7.65135 20.724 8.14699 22.247 8.96928C22.247 8.96928 23.2142 9.66537 23.6742 8.99715C24.2024 8.2304 23.1481 7.7531 23.1481 7.7531C21.2581 6.86447 18.9205 6.33899 16.3901 6.33899C15.9459 6.33899 15.5083 6.35697 15.0774 6.38861V7.73746C15.5721 7.68191 16.0804 7.65135 16.6003 7.65135Z" fill="#231F20"/>
<path d="M5.65867 2.87634C4.76984 2.87634 4.04858 3.59724 4.04858 4.48641V22.0544C4.04858 22.9438 4.76984 23.6643 5.65867 23.6643H15.0774V20.7699C9.41038 20.3559 5.00877 17.2952 5.00877 13.5793C5.00877 9.86313 9.41038 6.80281 15.0774 6.38861V2.87634H5.65867Z" fill="#0F0F0F"/>
<path d="M7.86084 13.2173C7.86084 15.96 10.9771 18.2379 15.0774 18.6973V7.73743C10.9771 8.19657 7.86084 10.4743 7.86084 13.2173Z" fill="#0F0F0F"/>
</svg>
